<svg preserveAspectRatio="none" width="100%" height="100%" overflow="visible" style="display: block;" viewBox="0 0 144.57 86.1777" fill="none" xmlns="http://www.w3.org/2000/svg">
<g id="Group 21">
<g id="Rectangle 43" filter="url(#filter0_d_491_858)">
<rect width="104.548" height="46.1777" rx="12.5" transform="matrix(1 0 0.0010509 0.999999 19.9869 21)" fill="var(--fill-0, #226DE0)"/>
<rect x="1.50158" y="1.5" width="101.548" height="43.1777" rx="11" transform="matrix(1 0 0.0010509 0.999999 19.9853 21)" stroke="var(--stroke-0, #FAF9F7)" stroke-width="3"/>
</g>
<path id="Vector" d="M80.4772 34.0025V38.2015M82.5767 36.102H78.3777M71.0473 34.857C71.0923 34.6162 71.2201 34.3987 71.4085 34.2422C71.597 34.0857 71.8342 34 72.0792 34C72.3242 34 72.5615 34.0857 72.7499 34.2422C72.9384 34.3987 73.0661 34.6162 73.1111 34.857L74.2144 40.6915C74.2928 41.1063 74.4944 41.4879 74.7928 41.7864C75.0913 42.0849 75.4729 42.2865 75.8877 42.3648L81.7222 43.4681C81.963 43.5131 82.1805 43.6409 82.337 43.8293C82.4935 44.0178 82.5792 44.255 82.5792 44.5C82.5792 44.745 82.4935 44.9822 82.337 45.1707C82.1805 45.3591 81.963 45.4869 81.7222 45.5319L75.8877 46.6352C75.4729 46.7135 75.0913 46.9151 74.7928 47.2136C74.4944 47.5121 74.2928 47.8937 74.2144 48.3085L73.1111 54.143C73.0661 54.3838 72.9384 54.6013 72.7499 54.7578C72.5615 54.9143 72.3242 55 72.0792 55C71.8342 55 71.597 54.9143 71.4085 54.7578C71.2201 54.6013 71.0923 54.3838 71.0473 54.143L69.944 48.3085C69.8657 47.8937 69.6641 47.5121 69.3656 47.2136C69.0671 46.9151 68.6855 46.7135 68.2707 46.6352L62.4362 45.5319C62.1954 45.4869 61.9779 45.3591 61.8214 45.1707C61.6649 44.9822 61.5792 44.745 61.5792 44.5C61.5792 44.255 61.6649 44.0178 61.8214 43.8293C61.9779 43.6409 62.1954 43.5131 62.4362 43.4681L68.2707 42.3648C68.6855 42.2865 69.0671 42.0849 69.3656 41.7864C69.6641 41.4879 69.8657 41.1063 69.944 40.6915L71.0473 34.857ZM65.7807 52.898C65.7807 54.0575 64.8407 54.9975 63.6812 54.9975C62.5217 54.9975 61.5817 54.0575 61.5817 52.898C61.5817 51.7385 62.5217 50.7985 63.6812 50.7985C64.8407 50.7985 65.7807 51.7385 65.7807 52.898Z" stroke="var(--stroke-0, #FAF9F7)" stroke-width="2.5" stroke-linecap="round" stroke-linejoin="round"/>
</g>
<defs>
<filter id="filter0_d_491_858" x="9.27597e-07" y="0" width="144.57" height="86.1777" filterUnits="userSpaceOnUse" color-interpolation-filters="sRGB">
<feFlood flood-opacity="0" result="BackgroundImageFix"/>
<feColorMatrix in="SourceAlpha" type="matrix" values="0 0 0 0 0 0 0 0 0 0 0 0 0 0 0 0 0 0 127 0" result="hardAlpha"/>
<feOffset dy="-1"/>
<feGaussianBlur stdDeviation="10"/>
<feComposite in2="hardAlpha" operator="out"/>
<feColorMatrix type="matrix" values="0 0 0 0 0 0 0 0 0 0 0 0 0 0 0 0 0 0 0.16 0"/>
<feBlend mode="normal" in2="BackgroundImageFix" result="effect1_dropShadow_491_858"/>
<feBlend mode="normal" in="SourceGraphic" in2="effect1_dropShadow_491_858" result="shape"/>
</filter>
</defs>
</svg>
