<svg preserveAspectRatio="none" width="100%" height="100%" overflow="visible" style="display: block;" viewBox="0 0 100 82" fill="none" xmlns="http://www.w3.org/2000/svg">
<g id="Logo">
<g id="Vector 2">
<path d="M1.05206 79.1413L19.4987 31.4282C20.1568 29.7261 22.5637 29.7222 23.2273 31.4222L41.8513 79.1353C42.3632 80.4467 41.396 81.8625 39.9882 81.8625H2.9175C1.51246 81.8625 0.545399 80.4518 1.05206 79.1413Z" fill="var(--fill-0, #3F4C61)"/>
<path d="M66.7196 80.8345L34.4116 2.90343C33.8656 1.58649 34.8335 0.137501 36.2591 0.137501H67.5923C70.0292 0.137501 72.463 0.314637 74.8743 0.66751L75.1934 0.714205C78.1735 1.15032 81.1116 1.8366 83.9765 2.76576C86.1361 3.46619 88.0826 4.70334 89.6336 6.36133L91.2146 8.0513C92.5427 9.47103 93.5979 11.1233 94.3273 12.9254C95.8873 16.7795 96.3314 20.9948 95.6088 25.0893L95.2546 27.0968C94.9991 28.5446 94.4252 29.9176 93.5743 31.1166L93.1678 31.6893C91.3099 34.3073 88.9169 36.5007 86.1474 38.1242C85.4011 38.5617 85.4471 39.6555 86.2275 40.0287L89.117 41.4107L92.0818 43.3166C93.9203 44.4985 95.5082 46.0307 96.7548 47.826C98.8677 50.8685 100 54.4841 100 58.1883V59.5406C100 61.1324 99.7383 62.7134 99.2253 64.2204L98.6841 65.8102C97.3989 69.5854 95.0098 72.9317 91.871 75.3919C90.0541 76.8159 88.056 78.0348 85.956 78.9934C81.8147 80.8841 77.3154 81.8625 72.7629 81.8625H68.2586C67.585 81.8625 66.9776 81.4568 66.7196 80.8345Z" fill="var(--fill-0, #3F4C61)"/>
</g>
</g>
</svg>
